<!-- Generator: Adobe Illustrator 21.0.0, SVG Export Plug-In  -->
<svg version="1.1"
	 xmlns="http://www.w3.org/2000/svg" xmlns:xlink="http://www.w3.org/1999/xlink" xmlns:a="http://ns.adobe.com/AdobeSVGViewerExtensions/3.0/"
	 x="0px" y="0px" width="1024px" height="100px" viewBox="0 0 1024 100" style="enable-background:new 0 0 1024 100;"
	 xml:space="preserve">
<style type="text/css">
	.st0{fill:#333333;}
	.st1{fill:#FFFFFF;}
	.st2{font-family:'Optima-Regular';}
	.st3{font-size:18px;}
	.st4{font-size:32px;}
	.st5{letter-spacing:-1;}
</style>
<defs>
</defs>
<rect class="st0" width="1024" height="100"/>
<g>
	<path class="st1" d="M57.564,69.493c-0.396-0.996-0.818-2.046-1.269-3.15c-0.45-1.104-0.912-2.231-1.386-3.384
		c-0.475-1.152-0.928-2.244-1.359-3.276c0.168,0.024,0.33,0.045,0.486,0.063c0.155,0.018,0.306,0.026,0.45,0.026
		c0.144,0,0.294-0.009,0.449-0.026c0.156-0.019,0.318-0.039,0.486-0.063c0.264,0.792,0.555,1.623,0.873,2.493
		c0.317,0.87,0.654,1.755,1.008,2.655c0.354,0.899,0.717,1.812,1.089,2.736c0.372,0.924,0.75,1.842,1.135,2.754
		c0.216-0.492,0.449-1.041,0.701-1.647c0.252-0.605,0.507-1.235,0.766-1.89c0.258-0.654,0.513-1.32,0.765-1.998
		s0.495-1.329,0.729-1.953c0.233-0.624,0.446-1.206,0.639-1.746c0.191-0.54,0.354-1.008,0.486-1.404
		c0.264,0.061,0.485,0.09,0.666,0.09c0.18,0,0.401-0.029,0.666-0.09c-0.937,2.088-1.837,4.158-2.7,6.21
		c-0.864,2.053-1.692,4.104-2.484,6.156c-0.192-0.024-0.39-0.036-0.594-0.036c-0.24,0-0.438,0.012-0.594,0.036
		C58.297,71.341,57.961,70.489,57.564,69.493z"/>
	<path class="st1" d="M66.438,59.719c0.181-0.18,0.396-0.27,0.648-0.27s0.468,0.09,0.647,0.27c0.181,0.181,0.271,0.396,0.271,0.648
		s-0.09,0.468-0.271,0.647c-0.18,0.181-0.396,0.271-0.647,0.271s-0.468-0.09-0.648-0.271c-0.18-0.18-0.27-0.396-0.27-0.647
		S66.259,59.9,66.438,59.719z M66.394,65.164c-0.018-0.594-0.057-1.149-0.117-1.665c0.336,0.061,0.606,0.09,0.811,0.09
		s0.474-0.029,0.81-0.09c-0.06,0.516-0.099,1.071-0.117,1.665c-0.018,0.594-0.026,1.161-0.026,1.701v1.872
		c0,0.54,0.009,1.106,0.026,1.7c0.019,0.595,0.058,1.132,0.117,1.611c-0.276-0.024-0.546-0.036-0.81-0.036
		c-0.265,0-0.534,0.012-0.811,0.036c0.061-0.479,0.1-1.017,0.117-1.611c0.019-0.594,0.027-1.16,0.027-1.7v-1.872
		C66.421,66.325,66.412,65.758,66.394,65.164z"/>
	<path class="st1" d="M74.729,64.777c-0.175-0.061-0.352-0.091-0.531-0.091c-0.288,0-0.546,0.066-0.774,0.198
		c-0.228,0.133-0.42,0.31-0.576,0.531c-0.155,0.222-0.275,0.486-0.359,0.792s-0.126,0.633-0.126,0.98v1.98
		c0,0.804,0.003,1.419,0.009,1.845c0.006,0.427,0.027,0.771,0.063,1.035c-0.24-0.024-0.48-0.036-0.721-0.036
		c-0.264,0-0.516,0.012-0.756,0.036c0.036-0.407,0.057-0.963,0.063-1.665c0.006-0.702,0.009-1.562,0.009-2.583v-0.576
		c0-0.468-0.003-1.008-0.009-1.62c-0.007-0.611-0.027-1.313-0.063-2.105c0.132,0.024,0.258,0.045,0.378,0.062
		c0.12,0.019,0.246,0.027,0.378,0.027c0.108,0,0.222-0.009,0.342-0.027c0.12-0.018,0.246-0.038,0.379-0.062
		c-0.049,0.432-0.075,0.773-0.081,1.026c-0.007,0.252-0.01,0.492-0.01,0.72l0.036,0.018c0.708-1.296,1.5-1.943,2.376-1.943
		c0.108,0,0.201,0.006,0.279,0.018s0.177,0.042,0.297,0.09c-0.061,0.145-0.096,0.363-0.108,0.657
		c-0.012,0.294-0.018,0.562-0.018,0.801l-0.126,0.09C75.019,64.903,74.902,64.837,74.729,64.777z"/>
	<path class="st1" d="M78.589,61.087c-0.036,0.456-0.062,0.903-0.081,1.341c-0.018,0.438-0.039,0.879-0.062,1.323
		c0.132,0,0.378-0.003,0.737-0.009c0.36-0.006,0.75-0.021,1.17-0.045c-0.012,0.036-0.018,0.102-0.018,0.197v0.181v0.197
		c0,0.085,0.006,0.145,0.018,0.181c-0.155-0.012-0.317-0.021-0.485-0.027s-0.349-0.009-0.54-0.009h-0.882
		c-0.013,0.048-0.027,0.24-0.045,0.576c-0.019,0.336-0.033,0.735-0.045,1.196c-0.013,0.463-0.021,0.945-0.027,1.449
		s-0.009,0.954-0.009,1.351c0,0.336,0.009,0.666,0.026,0.989c0.019,0.324,0.075,0.615,0.171,0.873
		c0.097,0.259,0.24,0.466,0.433,0.621c0.191,0.156,0.468,0.234,0.828,0.234c0.096,0,0.225-0.012,0.387-0.036
		c0.162-0.023,0.303-0.054,0.423-0.09v0.432c-0.204,0.036-0.429,0.081-0.675,0.135c-0.246,0.055-0.483,0.081-0.711,0.081
		c-0.756,0-1.314-0.186-1.675-0.558c-0.359-0.372-0.539-0.918-0.539-1.638c0-0.324,0.006-0.675,0.018-1.054
		c0.012-0.378,0.027-0.792,0.045-1.241c0.018-0.45,0.033-0.948,0.045-1.494s0.018-1.155,0.018-1.827h-0.575
		c-0.097,0-0.198,0.003-0.307,0.009c-0.107,0.006-0.222,0.016-0.342,0.027c0.012-0.072,0.021-0.141,0.027-0.207
		c0.006-0.066,0.009-0.135,0.009-0.207c0-0.06-0.003-0.12-0.009-0.18c-0.007-0.061-0.016-0.12-0.027-0.181
		c0.54,0.036,0.937,0.055,1.188,0.055c-0.012-0.24-0.021-0.54-0.027-0.9s-0.021-0.731-0.045-1.116l1.494-0.63H78.589z"/>
	<path class="st1" d="M81.981,67.702c0.019-0.45,0.027-0.897,0.027-1.341c0-0.42-0.003-0.876-0.009-1.368s-0.016-0.99-0.027-1.494
		c0.3,0.061,0.552,0.09,0.756,0.09c0.192,0,0.438-0.029,0.738-0.09c-0.061,0.72-0.105,1.509-0.135,2.367
		c-0.03,0.857-0.045,1.736-0.045,2.637c0,0.624,0.054,1.102,0.162,1.431c0.107,0.33,0.239,0.579,0.396,0.747
		c0.168,0.192,0.381,0.352,0.64,0.478c0.258,0.126,0.561,0.188,0.908,0.188c0.504,0,0.924-0.11,1.261-0.333
		c0.335-0.222,0.581-0.495,0.737-0.818c0.084-0.204,0.15-0.378,0.198-0.522c0.048-0.144,0.087-0.336,0.117-0.576
		c0.029-0.239,0.048-0.563,0.054-0.972s0.009-0.966,0.009-1.674v-1.513c0-0.264-0.003-0.516-0.009-0.756
		c-0.006-0.239-0.015-0.468-0.026-0.684c0.132,0.024,0.258,0.045,0.378,0.062c0.119,0.019,0.245,0.027,0.378,0.027
		c0.132,0,0.258-0.009,0.378-0.027c0.119-0.018,0.239-0.038,0.359-0.062c-0.06,0.936-0.096,1.839-0.107,2.709
		c-0.013,0.87-0.019,1.791-0.019,2.763c0,0.54,0.006,1.068,0.019,1.584c0.012,0.517,0.029,1.015,0.054,1.494
		c-0.24-0.024-0.475-0.036-0.702-0.036s-0.462,0.012-0.702,0.036c0.012-0.107,0.021-0.222,0.027-0.342s0.009-0.246,0.009-0.378
		v-0.774h-0.036c-0.312,0.576-0.714,0.999-1.206,1.27c-0.492,0.27-1.025,0.404-1.602,0.404c-0.936,0-1.671-0.248-2.205-0.746
		s-0.801-1.216-0.801-2.151C81.955,68.695,81.964,68.152,81.981,67.702z"/>
	<path class="st1" d="M93.619,63.535c0.455-0.145,0.924-0.216,1.403-0.216c0.433,0,0.828,0.062,1.189,0.188
		c0.36,0.126,0.669,0.306,0.924,0.54c0.256,0.234,0.456,0.517,0.603,0.846c0.146,0.331,0.219,0.693,0.219,1.09
		c0,0.684-0.013,1.364-0.036,2.043c-0.024,0.678-0.036,1.395-0.036,2.15c0,0.145,0.003,0.297,0.009,0.459s0.033,0.307,0.081,0.433
		s0.117,0.23,0.207,0.314s0.225,0.126,0.405,0.126c0.06,0,0.123-0.003,0.188-0.009c0.066-0.006,0.129-0.027,0.189-0.063v0.396
		c-0.132,0.061-0.297,0.108-0.495,0.144c-0.198,0.036-0.417,0.055-0.657,0.055c-0.39,0-0.688-0.1-0.895-0.297
		c-0.207-0.198-0.329-0.453-0.365-0.766c-0.431,0.433-0.855,0.75-1.273,0.954c-0.419,0.204-0.933,0.306-1.543,0.306
		c-0.299,0-0.592-0.042-0.879-0.126s-0.541-0.222-0.763-0.414c-0.221-0.191-0.4-0.423-0.538-0.692
		c-0.138-0.271-0.206-0.579-0.206-0.927c0-0.721,0.225-1.278,0.673-1.675c0.448-0.396,1.067-0.659,1.856-0.792
		c0.646-0.107,1.151-0.2,1.516-0.278c0.365-0.078,0.634-0.159,0.808-0.243c0.173-0.084,0.277-0.183,0.313-0.297
		s0.054-0.262,0.054-0.441c0-0.3-0.035-0.588-0.107-0.864c-0.072-0.275-0.187-0.516-0.342-0.72c-0.156-0.204-0.36-0.369-0.612-0.495
		s-0.558-0.188-0.918-0.188c-0.48,0-0.927,0.107-1.341,0.324c-0.414,0.216-0.724,0.516-0.928,0.899h-0.197v-0.936
		C92.665,63.955,93.162,63.679,93.619,63.535z M95.863,67.747c-0.27,0.048-0.541,0.099-0.815,0.153
		c-0.274,0.054-0.546,0.123-0.814,0.207c-0.27,0.084-0.508,0.197-0.717,0.342c-0.209,0.144-0.376,0.323-0.502,0.54
		c-0.125,0.216-0.188,0.492-0.188,0.828c0,0.563,0.161,0.989,0.483,1.277s0.681,0.433,1.074,0.433c0.454,0,0.869-0.126,1.245-0.378
		c0.376-0.253,0.666-0.546,0.869-0.883l0.071-2.699C96.367,67.639,96.132,67.699,95.863,67.747z"/>
	<path class="st1" d="M101.422,62.329c-0.006-0.479-0.016-0.954-0.027-1.422c-0.012-0.469-0.026-0.915-0.045-1.341
		c-0.018-0.427-0.039-0.789-0.062-1.09c0.335,0.061,0.605,0.091,0.81,0.091s0.474-0.03,0.81-0.091
		c-0.023,0.301-0.045,0.663-0.062,1.09c-0.018,0.426-0.033,0.872-0.045,1.341c-0.012,0.468-0.021,0.942-0.027,1.422
		s-0.009,0.924-0.009,1.332v3.258c0,0.408,0.003,0.853,0.009,1.332c0.006,0.48,0.016,0.954,0.027,1.422s0.027,0.912,0.045,1.332
		s0.039,0.769,0.062,1.044c-0.275-0.024-0.546-0.036-0.81-0.036s-0.534,0.012-0.81,0.036c0.023-0.275,0.045-0.624,0.062-1.044
		c0.019-0.42,0.033-0.864,0.045-1.332s0.021-0.941,0.027-1.422c0.006-0.479,0.009-0.924,0.009-1.332v-3.258
		C101.431,63.253,101.428,62.809,101.422,62.329z"/>
	<path class="st1" d="M111.358,70.366c0.162,0.222,0.36,0.423,0.594,0.603c0.234,0.181,0.507,0.327,0.819,0.441
		c0.312,0.114,0.66,0.171,1.044,0.171c0.396,0,0.753-0.069,1.071-0.207c0.317-0.138,0.588-0.324,0.81-0.558
		c0.222-0.234,0.394-0.511,0.514-0.828c0.119-0.318,0.18-0.657,0.18-1.018c0-0.552-0.142-0.99-0.423-1.313
		c-0.282-0.324-0.634-0.595-1.054-0.811s-0.873-0.414-1.358-0.594c-0.486-0.18-0.939-0.405-1.359-0.675
		c-0.42-0.271-0.771-0.615-1.053-1.035s-0.423-0.983-0.423-1.692c0-0.504,0.09-0.963,0.27-1.377c0.181-0.414,0.441-0.771,0.783-1.07
		s0.753-0.534,1.233-0.702c0.479-0.168,1.02-0.252,1.62-0.252c0.575,0,1.073,0.069,1.493,0.207s0.811,0.351,1.17,0.639
		c-0.107,0.204-0.197,0.42-0.27,0.648c-0.072,0.228-0.144,0.516-0.216,0.863h-0.216c-0.061-0.168-0.142-0.351-0.243-0.549
		c-0.103-0.198-0.24-0.381-0.414-0.549s-0.381-0.309-0.621-0.423s-0.528-0.171-0.864-0.171s-0.645,0.054-0.927,0.162
		c-0.282,0.107-0.528,0.261-0.738,0.459c-0.21,0.197-0.372,0.435-0.485,0.711c-0.114,0.275-0.172,0.575-0.172,0.899
		c0,0.564,0.142,1.008,0.424,1.332c0.281,0.324,0.633,0.598,1.053,0.819s0.873,0.42,1.359,0.594
		c0.485,0.174,0.938,0.387,1.358,0.639c0.42,0.253,0.771,0.576,1.053,0.973c0.282,0.396,0.424,0.924,0.424,1.584
		c0,0.552-0.1,1.074-0.298,1.565c-0.197,0.492-0.485,0.922-0.863,1.287c-0.378,0.366-0.841,0.648-1.387,0.847
		c-0.546,0.197-1.167,0.297-1.862,0.297c-0.744,0-1.348-0.1-1.81-0.297c-0.462-0.198-0.849-0.424-1.161-0.676
		c0.108-0.275,0.184-0.524,0.226-0.747c0.042-0.222,0.081-0.507,0.117-0.854h0.216C111.067,69.925,111.196,70.144,111.358,70.366z"
		/>
	<path class="st1" d="M119.765,67.405c-0.006-0.48-0.016-0.957-0.027-1.432c-0.012-0.474-0.026-0.927-0.045-1.358
		c-0.018-0.433-0.039-0.804-0.062-1.116c0.335,0.061,0.605,0.09,0.81,0.09s0.474-0.029,0.811-0.09
		c-0.049,0.312-0.085,0.612-0.108,0.9c-0.024,0.287-0.036,0.575-0.036,0.863h0.036c0.084-0.191,0.204-0.398,0.36-0.621
		c0.155-0.222,0.356-0.432,0.603-0.63s0.543-0.362,0.891-0.495c0.349-0.132,0.744-0.197,1.188-0.197c0.456,0,0.906,0.087,1.35,0.261
		c0.444,0.174,0.837,0.44,1.18,0.801c0.342,0.36,0.617,0.819,0.827,1.377c0.21,0.559,0.315,1.222,0.315,1.989
		s-0.114,1.434-0.342,1.998c-0.229,0.564-0.525,1.032-0.892,1.404s-0.782,0.645-1.251,0.818c-0.468,0.174-0.936,0.261-1.403,0.261
		c-1.32,0-2.263-0.569-2.826-1.71h-0.036v1.135c0,0.384,0.003,0.812,0.009,1.286c0.006,0.475,0.016,0.945,0.027,1.413
		c0.012,0.469,0.027,0.915,0.045,1.342c0.018,0.426,0.039,0.788,0.063,1.089c-0.337-0.061-0.606-0.09-0.811-0.09
		s-0.475,0.029-0.81,0.09c0.023-0.301,0.045-0.663,0.062-1.089c0.019-0.427,0.033-0.873,0.045-1.342
		c0.012-0.468,0.021-0.938,0.027-1.413c0.006-0.474,0.009-0.902,0.009-1.286v-2.916C119.773,68.329,119.771,67.885,119.765,67.405z
		 M126.047,65.947c-0.15-0.469-0.343-0.843-0.576-1.125c-0.234-0.282-0.501-0.478-0.801-0.585c-0.301-0.108-0.595-0.162-0.883-0.162
		c-0.479,0-0.891,0.102-1.232,0.306s-0.621,0.478-0.837,0.819s-0.372,0.744-0.468,1.206c-0.097,0.462-0.145,0.951-0.145,1.467
		c0,2.496,0.876,3.744,2.628,3.744c0.432,0,0.807-0.1,1.125-0.297c0.318-0.198,0.582-0.475,0.792-0.828
		c0.21-0.354,0.366-0.768,0.468-1.242c0.103-0.474,0.153-0.981,0.153-1.521C126.271,67.009,126.196,66.415,126.047,65.947z"/>
	<path class="st1" d="M131.636,63.535c0.455-0.145,0.924-0.216,1.403-0.216c0.433,0,0.828,0.062,1.189,0.188
		c0.36,0.126,0.669,0.306,0.924,0.54c0.256,0.234,0.456,0.517,0.603,0.846c0.146,0.331,0.219,0.693,0.219,1.09
		c0,0.684-0.013,1.364-0.036,2.043c-0.024,0.678-0.036,1.395-0.036,2.15c0,0.145,0.003,0.297,0.009,0.459s0.033,0.307,0.081,0.433
		s0.117,0.23,0.207,0.314s0.225,0.126,0.405,0.126c0.06,0,0.123-0.003,0.188-0.009c0.066-0.006,0.129-0.027,0.189-0.063v0.396
		c-0.132,0.061-0.297,0.108-0.495,0.144c-0.198,0.036-0.417,0.055-0.657,0.055c-0.39,0-0.688-0.1-0.895-0.297
		c-0.207-0.198-0.329-0.453-0.365-0.766c-0.431,0.433-0.855,0.75-1.273,0.954c-0.419,0.204-0.933,0.306-1.543,0.306
		c-0.299,0-0.592-0.042-0.879-0.126s-0.541-0.222-0.763-0.414c-0.221-0.191-0.4-0.423-0.538-0.692
		c-0.138-0.271-0.206-0.579-0.206-0.927c0-0.721,0.225-1.278,0.673-1.675c0.448-0.396,1.067-0.659,1.856-0.792
		c0.646-0.107,1.151-0.2,1.516-0.278c0.365-0.078,0.634-0.159,0.808-0.243c0.173-0.084,0.277-0.183,0.313-0.297
		s0.054-0.262,0.054-0.441c0-0.3-0.035-0.588-0.107-0.864c-0.072-0.275-0.187-0.516-0.342-0.72c-0.156-0.204-0.36-0.369-0.612-0.495
		s-0.558-0.188-0.918-0.188c-0.48,0-0.927,0.107-1.341,0.324c-0.414,0.216-0.724,0.516-0.928,0.899h-0.197v-0.936
		C130.682,63.955,131.179,63.679,131.636,63.535z M133.88,67.747c-0.27,0.048-0.541,0.099-0.815,0.153
		c-0.274,0.054-0.546,0.123-0.814,0.207c-0.27,0.084-0.508,0.197-0.717,0.342c-0.209,0.144-0.376,0.323-0.502,0.54
		c-0.125,0.216-0.188,0.492-0.188,0.828c0,0.563,0.161,0.989,0.483,1.277s0.681,0.433,1.074,0.433c0.454,0,0.869-0.126,1.245-0.378
		c0.376-0.253,0.666-0.546,0.869-0.883l0.071-2.699C134.384,67.639,134.148,67.699,133.88,67.747z"/>
	<path class="st1" d="M138.764,65.785c0.264-0.564,0.608-1.029,1.034-1.396c0.427-0.365,0.915-0.636,1.468-0.81
		c0.552-0.174,1.115-0.261,1.691-0.261c0.66,0,1.251,0.081,1.773,0.242c0.521,0.162,0.896,0.346,1.125,0.55
		c-0.084,0.18-0.159,0.368-0.226,0.566c-0.065,0.198-0.123,0.405-0.171,0.621h-0.144c-0.084-0.155-0.198-0.314-0.342-0.477
		c-0.145-0.162-0.315-0.312-0.514-0.45c-0.197-0.138-0.417-0.252-0.656-0.342c-0.24-0.091-0.504-0.136-0.792-0.136
		c-0.54,0-1.006,0.1-1.396,0.298c-0.39,0.197-0.708,0.471-0.954,0.818c-0.246,0.349-0.426,0.76-0.54,1.233s-0.171,0.987-0.171,1.539
		c0,1.235,0.264,2.169,0.792,2.799s1.302,0.945,2.322,0.945c0.24,0,0.486-0.033,0.738-0.1c0.252-0.065,0.497-0.155,0.737-0.27
		s0.465-0.249,0.676-0.405c0.209-0.156,0.393-0.324,0.549-0.504l0.09,0.054c-0.061,0.288-0.097,0.582-0.108,0.882
		c-0.359,0.288-0.807,0.534-1.341,0.738s-1.089,0.306-1.665,0.306c-0.516,0-1.035-0.074-1.557-0.225
		c-0.522-0.149-0.993-0.402-1.413-0.756s-0.759-0.812-1.018-1.377c-0.258-0.564-0.387-1.254-0.387-2.07
		C138.367,67.022,138.499,66.35,138.764,65.785z"/>
	<path class="st1" d="M148.294,64.579c0.702-0.84,1.726-1.26,3.069-1.26c0.636,0,1.185,0.099,1.647,0.297
		c0.461,0.197,0.849,0.462,1.16,0.792c0.312,0.33,0.543,0.717,0.693,1.161c0.15,0.443,0.225,0.918,0.225,1.422
		c0,0.12-0.003,0.237-0.009,0.351c-0.006,0.114-0.015,0.231-0.026,0.352c-0.648-0.013-1.29-0.024-1.927-0.036
		c-0.636-0.012-1.277-0.019-1.926-0.019c-0.396,0-0.789,0.007-1.179,0.019c-0.391,0.012-0.783,0.023-1.179,0.036
		c-0.013,0.06-0.019,0.149-0.019,0.27v0.234c0,0.468,0.069,0.906,0.207,1.313c0.138,0.408,0.339,0.76,0.604,1.053
		c0.264,0.295,0.587,0.528,0.972,0.702c0.384,0.175,0.828,0.262,1.332,0.262c0.24,0,0.486-0.033,0.738-0.1
		c0.252-0.065,0.497-0.155,0.737-0.27s0.465-0.249,0.675-0.405s0.394-0.324,0.55-0.504l0.09,0.054l-0.108,0.882
		c-0.359,0.288-0.807,0.534-1.341,0.738s-1.089,0.306-1.665,0.306c-0.647,0-1.239-0.099-1.772-0.297
		c-0.534-0.197-0.997-0.485-1.387-0.863c-0.39-0.379-0.689-0.825-0.899-1.342c-0.21-0.516-0.315-1.073-0.315-1.674
		C147.241,66.577,147.593,65.419,148.294,64.579z M150.274,64.201c-0.306,0.204-0.558,0.459-0.756,0.765s-0.349,0.643-0.45,1.008
		c-0.103,0.366-0.165,0.711-0.189,1.035c0.372,0.013,0.759,0.024,1.161,0.036s0.795,0.018,1.18,0.018
		c0.396,0,0.798-0.006,1.206-0.018c0.407-0.012,0.804-0.023,1.188-0.036c0-0.324-0.027-0.666-0.081-1.025
		c-0.054-0.36-0.162-0.696-0.324-1.009c-0.162-0.312-0.387-0.569-0.675-0.773s-0.666-0.307-1.134-0.307
		C150.955,63.895,150.58,63.997,150.274,64.201z"/>
	<path class="st1" d="M164.81,59.701c-0.265,0-0.489,0.051-0.676,0.152c-0.186,0.103-0.339,0.234-0.459,0.396
		s-0.207,0.351-0.261,0.567c-0.054,0.216-0.081,0.443-0.081,0.684c0,0.216,0.022,0.528,0.068,0.936
		c0.046,0.408,0.101,0.799,0.166,1.171c0.312,0,0.621-0.003,0.927-0.01c0.306-0.006,0.615-0.009,0.927-0.009
		c-0.012,0.061-0.021,0.12-0.026,0.18c-0.007,0.061-0.01,0.12-0.01,0.181c0,0.06,0.003,0.12,0.01,0.18
		c0.006,0.061,0.015,0.12,0.026,0.18c-0.312-0.012-0.621-0.023-0.927-0.036c-0.306-0.012-0.615-0.018-0.927-0.018
		c0,1.309,0.003,2.607,0.009,3.897s0.027,2.589,0.063,3.896c-0.134-0.024-0.268-0.036-0.401-0.036c-0.133,0-0.261,0-0.382,0
		c-0.255,0-0.522,0.012-0.801,0.036c0.083-1.308,0.132-2.601,0.144-3.879s0.018-2.583,0.018-3.915c-0.216,0-0.432,0.006-0.647,0.018
		c-0.216,0.013-0.432,0.024-0.648,0.036c0.012-0.06,0.021-0.119,0.027-0.18c0.006-0.06,0.009-0.12,0.009-0.18
		c0-0.061-0.003-0.12-0.009-0.181c-0.006-0.06-0.016-0.119-0.027-0.18c0.217,0,0.436,0.003,0.657,0.009
		c0.222,0.007,0.435,0.01,0.639,0.01c0-0.349,0.036-0.727,0.108-1.135c0.072-0.407,0.177-0.81,0.315-1.206
		c0.138-0.396,0.303-0.771,0.494-1.125c0.192-0.354,0.408-0.65,0.648-0.891c0.216-0.216,0.489-0.408,0.819-0.576
		s0.669-0.252,1.017-0.252c0.132,0,0.252,0.019,0.36,0.054c-0.013,0.24-0.027,0.48-0.045,0.721c-0.019,0.24-0.027,0.479-0.027,0.72
		l-0.108,0.054C165.512,59.791,165.181,59.701,164.81,59.701z"/>
	<path class="st1" d="M166.636,65.722c0.259-0.569,0.598-1.031,1.018-1.386c0.42-0.354,0.891-0.612,1.413-0.774
		c0.521-0.161,1.041-0.242,1.557-0.242c0.528,0,1.05,0.081,1.566,0.242c0.516,0.162,0.983,0.421,1.403,0.774
		c0.42,0.354,0.759,0.816,1.018,1.386c0.258,0.57,0.387,1.264,0.387,2.079c0,0.816-0.129,1.51-0.387,2.079
		c-0.259,0.57-0.598,1.032-1.018,1.386c-0.42,0.354-0.888,0.604-1.403,0.747c-0.517,0.145-1.038,0.216-1.566,0.216
		c-0.516,0-1.035-0.071-1.557-0.216c-0.522-0.144-0.993-0.393-1.413-0.747c-0.42-0.354-0.759-0.815-1.018-1.386
		c-0.258-0.569-0.387-1.263-0.387-2.079C166.249,66.985,166.378,66.292,166.636,65.722z M167.968,69.259
		c0.091,0.468,0.243,0.885,0.459,1.251c0.217,0.366,0.504,0.657,0.864,0.873s0.804,0.324,1.332,0.324s0.972-0.108,1.332-0.324
		s0.648-0.507,0.864-0.873s0.369-0.783,0.459-1.251s0.135-0.954,0.135-1.458s-0.045-0.99-0.135-1.458s-0.243-0.885-0.459-1.251
		s-0.504-0.657-0.864-0.873s-0.804-0.324-1.332-0.324s-0.972,0.108-1.332,0.324s-0.647,0.507-0.864,0.873
		c-0.216,0.366-0.368,0.783-0.459,1.251c-0.09,0.468-0.135,0.954-0.135,1.458S167.878,68.791,167.968,69.259z"/>
	<path class="st1" d="M180.766,64.777c-0.174-0.061-0.351-0.091-0.53-0.091c-0.288,0-0.547,0.066-0.774,0.198
		c-0.229,0.133-0.42,0.31-0.576,0.531s-0.276,0.486-0.359,0.792c-0.085,0.306-0.126,0.633-0.126,0.98v1.98
		c0,0.804,0.002,1.419,0.009,1.845c0.006,0.427,0.026,0.771,0.062,1.035c-0.24-0.024-0.479-0.036-0.72-0.036
		c-0.264,0-0.517,0.012-0.756,0.036c0.036-0.407,0.057-0.963,0.062-1.665s0.01-1.562,0.01-2.583v-0.576
		c0-0.468-0.004-1.008-0.01-1.62c-0.006-0.611-0.026-1.313-0.062-2.105c0.132,0.024,0.258,0.045,0.378,0.062
		c0.12,0.019,0.246,0.027,0.378,0.027c0.108,0,0.222-0.009,0.342-0.027c0.12-0.018,0.246-0.038,0.378-0.062
		c-0.048,0.432-0.075,0.773-0.081,1.026c-0.006,0.252-0.009,0.492-0.009,0.72l0.036,0.018c0.708-1.296,1.5-1.943,2.376-1.943
		c0.108,0,0.201,0.006,0.279,0.018c0.077,0.012,0.177,0.042,0.297,0.09c-0.061,0.145-0.097,0.363-0.108,0.657
		s-0.018,0.562-0.018,0.801l-0.126,0.09C181.057,64.903,180.939,64.837,180.766,64.777z"/>
	<path class="st1" d="M188.344,62.014c-0.03-0.762-0.062-1.539-0.099-2.331c0.456,0.024,0.909,0.045,1.358,0.063
		c0.45,0.018,0.903,0.026,1.359,0.026s0.909-0.015,1.359-0.045c0.45-0.029,0.902-0.045,1.358-0.045c1.056,0,1.959,0.139,2.709,0.414
		c0.75,0.276,1.365,0.669,1.846,1.18c0.479,0.51,0.83,1.134,1.053,1.871c0.222,0.738,0.333,1.569,0.333,2.493
		c0,1.2-0.207,2.212-0.621,3.033c-0.414,0.822-0.942,1.485-1.584,1.989c-0.643,0.504-1.35,0.861-2.124,1.071
		s-1.515,0.314-2.223,0.314c-0.408,0-0.811-0.006-1.206-0.018c-0.396-0.013-0.799-0.019-1.206-0.019c-0.408,0-0.811,0-1.206,0
		c-0.396,0-0.799,0.012-1.206,0.036c0.036-0.744,0.068-1.5,0.099-2.268c0.03-0.769,0.045-1.548,0.045-2.34v-3.097
		C188.389,63.553,188.374,62.776,188.344,62.014z M189.973,71.257c0.252,0.061,0.595,0.105,1.026,0.135
		c0.432,0.03,0.876,0.045,1.332,0.045c0.66,0,1.32-0.077,1.979-0.233c0.66-0.156,1.251-0.45,1.773-0.882
		c0.522-0.433,0.948-1.023,1.278-1.773s0.495-1.719,0.495-2.907c0-1.044-0.13-1.901-0.388-2.573s-0.611-1.203-1.062-1.594
		c-0.45-0.39-0.987-0.659-1.611-0.81s-1.308-0.226-2.052-0.226c-0.54,0-1.044,0.019-1.512,0.055
		c-0.469,0.036-0.889,0.078-1.261,0.126c-0.036,0.576-0.062,1.179-0.081,1.809c-0.018,0.63-0.026,1.27-0.026,1.917v3.097
		C189.865,68.737,189.901,70.009,189.973,71.257z"/>
	<path class="st1" d="M202.482,59.719c0.181-0.18,0.396-0.27,0.648-0.27s0.468,0.09,0.648,0.27c0.18,0.181,0.27,0.396,0.27,0.648
		s-0.09,0.468-0.27,0.647c-0.181,0.181-0.396,0.271-0.648,0.271s-0.468-0.09-0.648-0.271c-0.18-0.18-0.27-0.396-0.27-0.647
		S202.303,59.9,202.482,59.719z M202.438,65.164c-0.018-0.594-0.057-1.149-0.116-1.665c0.335,0.061,0.605,0.09,0.81,0.09
		s0.474-0.029,0.81-0.09c-0.06,0.516-0.099,1.071-0.116,1.665c-0.019,0.594-0.027,1.161-0.027,1.701v1.872
		c0,0.54,0.009,1.106,0.027,1.7c0.018,0.595,0.057,1.132,0.116,1.611c-0.275-0.024-0.546-0.036-0.81-0.036s-0.534,0.012-0.81,0.036
		c0.06-0.479,0.099-1.017,0.116-1.611c0.019-0.594,0.027-1.16,0.027-1.7v-1.872C202.465,66.325,202.456,65.758,202.438,65.164z"/>
	<path class="st1" d="M208.657,63.535c0.455-0.145,0.924-0.216,1.403-0.216c0.433,0,0.828,0.062,1.189,0.188
		c0.36,0.126,0.669,0.306,0.924,0.54c0.256,0.234,0.456,0.517,0.603,0.846c0.146,0.331,0.219,0.693,0.219,1.09
		c0,0.684-0.013,1.364-0.036,2.043c-0.024,0.678-0.036,1.395-0.036,2.15c0,0.145,0.003,0.297,0.009,0.459s0.033,0.307,0.081,0.433
		s0.117,0.23,0.207,0.314s0.225,0.126,0.405,0.126c0.06,0,0.123-0.003,0.188-0.009c0.066-0.006,0.129-0.027,0.189-0.063v0.396
		c-0.132,0.061-0.297,0.108-0.495,0.144c-0.198,0.036-0.417,0.055-0.657,0.055c-0.39,0-0.688-0.1-0.895-0.297
		c-0.207-0.198-0.329-0.453-0.365-0.766c-0.431,0.433-0.855,0.75-1.273,0.954c-0.419,0.204-0.933,0.306-1.543,0.306
		c-0.299,0-0.592-0.042-0.879-0.126s-0.541-0.222-0.763-0.414c-0.221-0.191-0.4-0.423-0.538-0.692
		c-0.138-0.271-0.206-0.579-0.206-0.927c0-0.721,0.225-1.278,0.673-1.675c0.448-0.396,1.067-0.659,1.856-0.792
		c0.646-0.107,1.151-0.2,1.516-0.278c0.365-0.078,0.634-0.159,0.808-0.243c0.173-0.084,0.277-0.183,0.313-0.297
		s0.054-0.262,0.054-0.441c0-0.3-0.035-0.588-0.107-0.864c-0.072-0.275-0.187-0.516-0.342-0.72c-0.156-0.204-0.36-0.369-0.612-0.495
		s-0.558-0.188-0.918-0.188c-0.48,0-0.927,0.107-1.341,0.324c-0.414,0.216-0.724,0.516-0.928,0.899h-0.197v-0.936
		C207.703,63.955,208.2,63.679,208.657,63.535z M210.901,67.747c-0.27,0.048-0.541,0.099-0.815,0.153
		c-0.274,0.054-0.546,0.123-0.814,0.207c-0.27,0.084-0.508,0.197-0.717,0.342c-0.209,0.144-0.376,0.323-0.502,0.54
		c-0.125,0.216-0.188,0.492-0.188,0.828c0,0.563,0.161,0.989,0.483,1.277s0.681,0.433,1.074,0.433c0.454,0,0.869-0.126,1.245-0.378
		c0.376-0.253,0.666-0.546,0.869-0.883l0.071-2.699C211.405,67.639,211.17,67.699,210.901,67.747z"/>
	<path class="st1" d="M216.46,62.329c-0.006-0.479-0.016-0.954-0.027-1.422c-0.012-0.469-0.026-0.915-0.045-1.341
		c-0.018-0.427-0.039-0.789-0.062-1.09c0.335,0.061,0.605,0.091,0.81,0.091s0.474-0.03,0.81-0.091
		c-0.023,0.301-0.045,0.663-0.062,1.09c-0.018,0.426-0.033,0.872-0.045,1.341c-0.012,0.468-0.021,0.942-0.027,1.422
		s-0.009,0.924-0.009,1.332v3.258c0,0.408,0.003,0.853,0.009,1.332c0.006,0.48,0.016,0.954,0.027,1.422s0.027,0.912,0.045,1.332
		s0.039,0.769,0.062,1.044c-0.275-0.024-0.546-0.036-0.81-0.036s-0.534,0.012-0.81,0.036c0.023-0.275,0.045-0.624,0.062-1.044
		c0.019-0.42,0.033-0.864,0.045-1.332s0.021-0.941,0.027-1.422c0.006-0.479,0.009-0.924,0.009-1.332v-3.258
		C216.469,63.253,216.466,62.809,216.46,62.329z"/>
	<path class="st1" d="M220.653,65.722c0.259-0.569,0.598-1.031,1.018-1.386c0.42-0.354,0.891-0.612,1.413-0.774
		c0.521-0.161,1.041-0.242,1.557-0.242c0.528,0,1.05,0.081,1.566,0.242c0.516,0.162,0.983,0.421,1.403,0.774
		c0.42,0.354,0.759,0.816,1.018,1.386c0.258,0.57,0.387,1.264,0.387,2.079c0,0.816-0.129,1.51-0.387,2.079
		c-0.259,0.57-0.598,1.032-1.018,1.386c-0.42,0.354-0.888,0.604-1.403,0.747c-0.517,0.145-1.038,0.216-1.566,0.216
		c-0.516,0-1.035-0.071-1.557-0.216c-0.522-0.144-0.993-0.393-1.413-0.747c-0.42-0.354-0.759-0.815-1.018-1.386
		c-0.258-0.569-0.387-1.263-0.387-2.079C220.267,66.985,220.396,66.292,220.653,65.722z M221.985,69.259
		c0.091,0.468,0.243,0.885,0.459,1.251c0.217,0.366,0.504,0.657,0.864,0.873s0.804,0.324,1.332,0.324s0.972-0.108,1.332-0.324
		s0.648-0.507,0.864-0.873s0.369-0.783,0.459-1.251s0.135-0.954,0.135-1.458s-0.045-0.99-0.135-1.458s-0.243-0.885-0.459-1.251
		s-0.504-0.657-0.864-0.873s-0.804-0.324-1.332-0.324s-0.972,0.108-1.332,0.324s-0.647,0.507-0.864,0.873
		c-0.216,0.366-0.368,0.783-0.459,1.251c-0.09,0.468-0.135,0.954-0.135,1.458S221.896,68.791,221.985,69.259z"/>
	<path class="st1" d="M230.814,64.948c0.18-0.366,0.429-0.669,0.747-0.909c0.317-0.24,0.684-0.42,1.098-0.54s0.855-0.18,1.323-0.18
		c0.228,0,0.447,0.006,0.657,0.018s0.477,0.03,0.801,0.054c0.276,0.024,0.522,0.043,0.738,0.055s0.39,0.018,0.521,0.018
		c0.672,0,1.158-0.029,1.458-0.09c-0.012,0.061-0.021,0.123-0.026,0.188c-0.007,0.066-0.01,0.13-0.01,0.189
		c0,0.061,0.003,0.123,0.01,0.188c0.006,0.066,0.015,0.13,0.026,0.189c-0.348-0.023-0.687-0.051-1.017-0.081
		c-0.33-0.029-0.657-0.051-0.981-0.062l-0.035,0.035c0.371,0.205,0.672,0.52,0.899,0.945s0.342,0.867,0.342,1.323
		c0,0.899-0.303,1.604-0.908,2.115c-0.606,0.51-1.42,0.765-2.439,0.765c-0.168,0-0.333-0.006-0.495-0.018
		c-0.162-0.013-0.327-0.019-0.495-0.019c-0.216,0-0.417,0.078-0.603,0.234c-0.187,0.156-0.279,0.354-0.279,0.594
		c0,0.312,0.075,0.54,0.225,0.684c0.15,0.145,0.43,0.223,0.838,0.234c0.335,0.012,0.666,0.021,0.989,0.027
		c0.324,0.006,0.654,0.015,0.99,0.026c0.552,0.013,1.023,0.078,1.413,0.198s0.708,0.282,0.954,0.486s0.426,0.438,0.54,0.702
		c0.113,0.264,0.171,0.552,0.171,0.863c0,0.42-0.081,0.847-0.243,1.278s-0.414,0.822-0.756,1.17s-0.783,0.636-1.323,0.864
		c-0.54,0.228-1.188,0.342-1.943,0.342c-1.164,0-2.083-0.231-2.755-0.693s-1.008-1.095-1.008-1.898c0-0.312,0.057-0.601,0.171-0.864
		s0.262-0.498,0.441-0.702s0.384-0.366,0.612-0.485c0.228-0.12,0.462-0.21,0.701-0.271v-0.036c-0.372-0.107-0.653-0.288-0.846-0.54
		s-0.288-0.552-0.288-0.899c0-0.204,0.039-0.391,0.117-0.559s0.177-0.317,0.297-0.45c0.12-0.132,0.258-0.239,0.414-0.323
		s0.306-0.138,0.45-0.162v-0.036c-0.552-0.24-0.984-0.579-1.296-1.017c-0.312-0.438-0.468-0.987-0.468-1.647
		C230.545,65.749,230.635,65.315,230.814,64.948z M236.305,72.445c-0.42-0.288-1.116-0.433-2.088-0.433
		c-0.9,0-1.597,0.147-2.088,0.441c-0.492,0.294-0.738,0.825-0.738,1.593c0,0.408,0.068,0.756,0.207,1.044
		c0.138,0.288,0.324,0.522,0.558,0.702c0.234,0.18,0.514,0.312,0.837,0.396c0.324,0.084,0.672,0.126,1.044,0.126
		c0.36,0,0.714-0.048,1.062-0.144c0.348-0.096,0.657-0.24,0.927-0.432c0.271-0.192,0.489-0.436,0.657-0.729s0.252-0.645,0.252-1.053
		C236.935,73.237,236.725,72.734,236.305,72.445z M235.423,64.435c-0.36-0.396-0.835-0.594-1.422-0.594
		c-0.648,0-1.152,0.219-1.513,0.657c-0.359,0.438-0.54,1.023-0.54,1.755c0,0.756,0.165,1.354,0.495,1.791
		c0.33,0.438,0.843,0.657,1.539,0.657c0.348,0,0.645-0.069,0.891-0.207s0.45-0.324,0.612-0.559c0.162-0.233,0.282-0.504,0.36-0.81
		s0.117-0.627,0.117-0.963C235.963,65.407,235.782,64.831,235.423,64.435z"/>
	<path class="st1" d="M240.039,67.702c0.019-0.45,0.027-0.897,0.027-1.341c0-0.42-0.003-0.876-0.009-1.368s-0.016-0.99-0.027-1.494
		c0.3,0.061,0.552,0.09,0.756,0.09c0.192,0,0.438-0.029,0.738-0.09c-0.061,0.72-0.105,1.509-0.135,2.367
		c-0.03,0.857-0.045,1.736-0.045,2.637c0,0.624,0.054,1.102,0.162,1.431c0.107,0.33,0.239,0.579,0.396,0.747
		c0.168,0.192,0.381,0.352,0.64,0.478c0.258,0.126,0.561,0.188,0.908,0.188c0.504,0,0.924-0.11,1.261-0.333
		c0.335-0.222,0.581-0.495,0.737-0.818c0.084-0.204,0.15-0.378,0.198-0.522c0.048-0.144,0.087-0.336,0.117-0.576
		c0.029-0.239,0.048-0.563,0.054-0.972s0.009-0.966,0.009-1.674v-1.513c0-0.264-0.003-0.516-0.009-0.756
		c-0.006-0.239-0.015-0.468-0.026-0.684c0.132,0.024,0.258,0.045,0.378,0.062c0.119,0.019,0.245,0.027,0.378,0.027
		c0.132,0,0.258-0.009,0.378-0.027c0.119-0.018,0.239-0.038,0.359-0.062c-0.06,0.936-0.096,1.839-0.107,2.709
		c-0.013,0.87-0.019,1.791-0.019,2.763c0,0.54,0.006,1.068,0.019,1.584c0.012,0.517,0.029,1.015,0.054,1.494
		c-0.24-0.024-0.475-0.036-0.702-0.036s-0.462,0.012-0.702,0.036c0.012-0.107,0.021-0.222,0.027-0.342s0.009-0.246,0.009-0.378
		v-0.774h-0.036c-0.312,0.576-0.714,0.999-1.206,1.27c-0.492,0.27-1.025,0.404-1.602,0.404c-0.936,0-1.671-0.248-2.205-0.746
		s-0.801-1.216-0.801-2.151C240.013,68.695,240.021,68.152,240.039,67.702z"/>
	<path class="st1" d="M250.336,64.579c0.702-0.84,1.726-1.26,3.069-1.26c0.636,0,1.185,0.099,1.647,0.297
		c0.461,0.197,0.849,0.462,1.16,0.792c0.312,0.33,0.543,0.717,0.693,1.161c0.15,0.443,0.225,0.918,0.225,1.422
		c0,0.12-0.003,0.237-0.009,0.351c-0.006,0.114-0.015,0.231-0.026,0.352c-0.648-0.013-1.29-0.024-1.927-0.036
		c-0.636-0.012-1.277-0.019-1.926-0.019c-0.396,0-0.789,0.007-1.179,0.019c-0.391,0.012-0.783,0.023-1.179,0.036
		c-0.013,0.06-0.019,0.149-0.019,0.27v0.234c0,0.468,0.069,0.906,0.207,1.313c0.138,0.408,0.339,0.76,0.604,1.053
		c0.264,0.295,0.587,0.528,0.972,0.702c0.384,0.175,0.828,0.262,1.332,0.262c0.24,0,0.486-0.033,0.738-0.1
		c0.252-0.065,0.497-0.155,0.737-0.27s0.465-0.249,0.675-0.405c0.21-0.156,0.394-0.324,0.55-0.504l0.09,0.054l-0.108,0.882
		c-0.359,0.288-0.807,0.534-1.341,0.738s-1.089,0.306-1.665,0.306c-0.647,0-1.239-0.099-1.772-0.297
		c-0.534-0.197-0.997-0.485-1.387-0.863c-0.39-0.379-0.689-0.825-0.899-1.342c-0.21-0.516-0.315-1.073-0.315-1.674
		C249.283,66.577,249.635,65.419,250.336,64.579z M252.316,64.201c-0.306,0.204-0.558,0.459-0.756,0.765s-0.349,0.643-0.45,1.008
		c-0.103,0.366-0.165,0.711-0.189,1.035c0.372,0.013,0.759,0.024,1.161,0.036s0.795,0.018,1.18,0.018
		c0.396,0,0.798-0.006,1.206-0.018c0.407-0.012,0.804-0.023,1.188-0.036c0-0.324-0.027-0.666-0.081-1.025
		c-0.054-0.36-0.162-0.696-0.324-1.009c-0.162-0.312-0.387-0.569-0.675-0.773s-0.666-0.307-1.134-0.307
		C252.997,63.895,252.622,63.997,252.316,64.201z"/>
</g>
<g>
	<path class="st1" d="M69.3,30.224c-0.053-1.354-0.111-2.736-0.176-4.145c0.277,0.043,0.544,0.08,0.801,0.112
		c0.256,0.032,0.512,0.048,0.768,0.048s0.512-0.016,0.768-0.048s0.522-0.069,0.801-0.112c-0.064,1.408-0.123,2.79-0.177,4.145
		s-0.08,2.735-0.08,4.144v5.504c0,1.408,0.026,2.795,0.08,4.16s0.112,2.71,0.177,4.032c-0.492-0.043-1.014-0.064-1.568-0.064
		s-1.078,0.021-1.568,0.064c0.064-1.322,0.123-2.667,0.176-4.032s0.08-2.752,0.08-4.16v-2.88c-1.152-0.021-2.267-0.037-3.344-0.048
		c-1.078-0.011-2.191-0.016-3.344-0.016s-2.268,0.005-3.344,0.016c-1.078,0.011-2.192,0.027-3.345,0.048v2.88
		c0,1.408,0.026,2.795,0.08,4.16s0.112,2.71,0.177,4.032c-0.492-0.043-1.014-0.064-1.568-0.064s-1.078,0.021-1.568,0.064
		c0.064-1.322,0.123-2.667,0.176-4.032s0.08-2.752,0.08-4.16v-5.504c0-1.408-0.027-2.789-0.08-4.144s-0.111-2.736-0.176-4.145
		c0.277,0.043,0.544,0.08,0.801,0.112c0.256,0.032,0.512,0.048,0.768,0.048s0.512-0.016,0.768-0.048s0.522-0.069,0.801-0.112
		c-0.064,1.408-0.123,2.79-0.177,4.145s-0.08,2.735-0.08,4.144v1.12c1.152,0.021,2.267,0.043,3.345,0.063
		c1.076,0.022,2.191,0.032,3.344,0.032s2.266-0.01,3.344-0.032c1.077-0.021,2.191-0.042,3.344-0.063v-1.12
		C69.38,32.959,69.353,31.578,69.3,30.224z"/>
	<path class="st1" d="M77.364,32.272c0.586-1.419,1.408-2.619,2.464-3.601c1.056-0.98,2.319-1.728,3.792-2.239
		c1.473-0.513,3.082-0.769,4.832-0.769c1.771,0,3.393,0.256,4.863,0.769c1.473,0.512,2.736,1.259,3.793,2.239
		c1.056,0.981,1.877,2.182,2.464,3.601s0.88,3.035,0.88,4.848c0,1.813-0.293,3.43-0.88,4.848c-0.587,1.42-1.408,2.619-2.464,3.601
		c-1.057,0.981-2.32,1.712-3.793,2.191c-1.471,0.48-3.093,0.721-4.863,0.721c-1.75,0-3.359-0.24-4.832-0.721
		c-1.473-0.479-2.736-1.21-3.792-2.191s-1.878-2.181-2.464-3.601c-0.587-1.418-0.88-3.034-0.88-4.848
		C76.484,35.307,76.777,33.691,77.364,32.272z M96.644,32.527c-0.447-1.291-1.071-2.357-1.871-3.2
		c-0.801-0.843-1.739-1.467-2.816-1.872c-1.078-0.405-2.246-0.607-3.504-0.607c-1.237,0-2.395,0.202-3.473,0.607
		c-1.076,0.405-2.016,1.029-2.815,1.872s-1.424,1.909-1.872,3.2c-0.447,1.291-0.672,2.821-0.672,4.592
		c0,1.771,0.225,3.302,0.672,4.592c0.448,1.291,1.072,2.357,1.872,3.2s1.739,1.467,2.815,1.872c1.078,0.405,2.235,0.608,3.473,0.608
		c1.258,0,2.426-0.203,3.504-0.608c1.077-0.405,2.016-1.029,2.816-1.872c0.8-0.843,1.424-1.909,1.871-3.2
		c0.449-1.29,0.672-2.82,0.672-4.592C97.315,35.349,97.093,33.818,96.644,32.527z"/>
	<path class="st1" d="M104.021,32.272c0.586-1.419,1.407-2.619,2.463-3.601c1.057-0.98,2.32-1.728,3.793-2.239
		c1.472-0.513,3.082-0.769,4.832-0.769c1.77,0,3.392,0.256,4.863,0.769c1.473,0.512,2.736,1.259,3.792,2.239
		c1.056,0.981,1.878,2.182,2.464,3.601c0.587,1.419,0.881,3.035,0.881,4.848c0,1.813-0.294,3.43-0.881,4.848
		c-0.586,1.42-1.408,2.619-2.464,3.601s-2.319,1.712-3.792,2.191c-1.472,0.48-3.094,0.721-4.863,0.721
		c-1.75,0-3.36-0.24-4.832-0.721c-1.473-0.479-2.736-1.21-3.793-2.191c-1.056-0.981-1.877-2.181-2.463-3.601
		c-0.588-1.418-0.881-3.034-0.881-4.848C103.14,35.307,103.433,33.691,104.021,32.272z M123.3,32.527
		c-0.447-1.291-1.072-2.357-1.872-3.2s-1.739-1.467-2.815-1.872c-1.078-0.405-2.246-0.607-3.504-0.607
		c-1.238,0-2.396,0.202-3.473,0.607s-2.016,1.029-2.816,1.872c-0.799,0.843-1.424,1.909-1.871,3.2
		c-0.448,1.291-0.672,2.821-0.672,4.592c0,1.771,0.224,3.302,0.672,4.592c0.447,1.291,1.072,2.357,1.871,3.2
		c0.801,0.843,1.739,1.467,2.816,1.872s2.234,0.608,3.473,0.608c1.258,0,2.426-0.203,3.504-0.608
		c1.076-0.405,2.016-1.029,2.815-1.872s1.425-1.909,1.872-3.2c0.448-1.29,0.672-2.82,0.672-4.592
		C123.972,35.349,123.748,33.818,123.3,32.527z"/>
	<path class="st1" d="M131.508,30.224c-0.054-1.354-0.112-2.736-0.177-4.145c0.811,0.043,1.617,0.08,2.416,0.112
		c0.801,0.032,1.605,0.048,2.416,0.048s1.617-0.026,2.416-0.08c0.801-0.053,1.605-0.08,2.416-0.08c1.877,0,3.482,0.246,4.816,0.736
		c1.333,0.491,2.427,1.189,3.28,2.096c0.853,0.907,1.478,2.017,1.872,3.328s0.592,2.789,0.592,4.432
		c0,2.134-0.368,3.932-1.104,5.393c-0.736,1.461-1.676,2.64-2.816,3.536c-1.142,0.896-2.4,1.53-3.775,1.903
		c-1.377,0.374-2.694,0.561-3.953,0.561c-0.725,0-1.439-0.011-2.144-0.032s-1.419-0.032-2.144-0.032c-0.727,0-1.44,0-2.145,0
		s-1.419,0.021-2.145,0.064c0.064-1.322,0.123-2.667,0.177-4.032c0.053-1.365,0.08-2.752,0.08-4.16v-5.504
		C131.588,32.959,131.561,31.578,131.508,30.224z M134.403,46.655c0.448,0.107,1.057,0.187,1.824,0.24s1.557,0.08,2.368,0.08
		c1.173,0,2.347-0.139,3.521-0.416c1.172-0.277,2.224-0.801,3.151-1.568c0.929-0.768,1.685-1.818,2.272-3.152
		c0.586-1.333,0.879-3.056,0.879-5.168c0-1.855-0.229-3.381-0.688-4.575c-0.459-1.195-1.088-2.139-1.888-2.832
		s-1.755-1.174-2.864-1.44s-2.325-0.4-3.648-0.4c-0.959,0-1.855,0.032-2.688,0.097c-0.832,0.063-1.579,0.139-2.24,0.224
		c-0.063,1.024-0.111,2.096-0.144,3.216s-0.048,2.256-0.048,3.408v5.504C134.212,42.175,134.276,44.437,134.403,46.655z"/>
	<path class="st1" d="M171.892,34.495c1.504,2.859,3.077,5.792,4.721,8.8c0.213-0.404,0.521-0.986,0.928-1.744
		c0.404-0.757,0.874-1.626,1.408-2.607c0.532-0.981,1.104-2.043,1.711-3.185c0.608-1.141,1.227-2.298,1.856-3.472
		c0.629-1.173,1.253-2.325,1.872-3.456c0.619-1.13,1.194-2.187,1.729-3.168h0.416c0.234,2.048,0.453,4.027,0.655,5.937
		s0.411,3.787,0.624,5.632c0.213,1.846,0.427,3.669,0.641,5.472c0.213,1.803,0.447,3.59,0.703,5.36
		c-0.256-0.043-0.507-0.064-0.752-0.064s-0.496,0-0.752,0s-0.507,0-0.752,0s-0.496,0.021-0.752,0.064
		c-0.234-2.837-0.469-5.589-0.703-8.256c-0.236-2.667-0.523-5.387-0.865-8.16h-0.063c-1.472,2.688-2.917,5.359-4.336,8.016
		s-2.769,5.436-4.048,8.336h-0.288c-1.28-2.688-2.619-5.381-4.017-8.08c-1.396-2.698-2.799-5.456-4.207-8.271h-0.064
		c-0.149,1.323-0.314,2.757-0.496,4.304s-0.347,3.072-0.496,4.576s-0.277,2.923-0.384,4.256c-0.106,1.334-0.16,2.427-0.16,3.28
		c-0.341-0.043-0.715-0.064-1.12-0.064s-0.779,0.021-1.119,0.064c0.276-1.729,0.564-3.552,0.863-5.473
		c0.299-1.92,0.586-3.85,0.864-5.792c0.276-1.94,0.532-3.855,0.769-5.743c0.234-1.889,0.437-3.686,0.607-5.393h0.544
		C168.899,28.692,170.388,31.637,171.892,34.495z"/>
	<path class="st1" d="M210.468,29.472c-0.021-1.643-0.075-2.773-0.16-3.393c0.234,0.043,0.459,0.08,0.672,0.112
		s0.426,0.048,0.641,0.048c0.276,0,0.596-0.053,0.959-0.16c-0.063,0.747-0.128,1.638-0.191,2.672
		c-0.064,1.035-0.117,2.145-0.16,3.328c-0.043,1.185-0.086,2.4-0.128,3.648c-0.043,1.248-0.075,2.459-0.097,3.632
		c-0.021,1.43-0.24,2.709-0.656,3.84c-0.415,1.131-1.008,2.091-1.775,2.88c-0.768,0.79-1.712,1.387-2.832,1.792
		c-1.119,0.405-2.405,0.608-3.855,0.608c-3.2,0-5.525-0.726-6.977-2.176c-1.451-1.451-2.176-3.744-2.176-6.881
		c0-1.002,0.026-1.893,0.08-2.672c0.053-0.778,0.08-1.572,0.08-2.384c0-1.792-0.021-3.381-0.064-4.768s-0.086-2.561-0.128-3.521
		c0.257,0.043,0.533,0.08,0.832,0.112s0.576,0.048,0.832,0.048c0.235,0,0.464-0.016,0.688-0.048
		c0.224-0.032,0.453-0.069,0.688-0.112c-0.043,0.47-0.086,1.083-0.128,1.84c-0.043,0.758-0.085,1.616-0.128,2.576
		s-0.075,1.995-0.096,3.104c-0.021,1.109-0.032,2.261-0.032,3.456c0,0.726,0.011,1.478,0.032,2.256
		c0.021,0.778,0.096,1.536,0.224,2.271c0.128,0.736,0.336,1.44,0.624,2.112s0.699,1.259,1.232,1.76
		c0.533,0.502,1.205,0.896,2.016,1.185s1.812,0.432,3.008,0.432c1.174,0,2.16-0.171,2.96-0.512s1.456-0.789,1.968-1.345
		c0.513-0.554,0.912-1.194,1.201-1.92c0.287-0.725,0.495-1.482,0.623-2.271c0.129-0.789,0.203-1.579,0.225-2.368
		c0.021-0.789,0.031-1.515,0.031-2.176C210.499,33.45,210.488,31.114,210.468,29.472z"/>
	<path class="st1" d="M218.708,45.071c0.287,0.395,0.639,0.752,1.055,1.072c0.416,0.319,0.902,0.581,1.457,0.784
		c0.555,0.202,1.173,0.304,1.855,0.304c0.704,0,1.339-0.123,1.904-0.368c0.564-0.245,1.045-0.576,1.439-0.992
		s0.699-0.906,0.912-1.472s0.32-1.168,0.32-1.809c0-0.98-0.251-1.76-0.752-2.336c-0.502-0.575-1.125-1.056-1.872-1.439
		s-1.552-0.736-2.416-1.057c-0.864-0.319-1.669-0.72-2.416-1.199c-0.747-0.48-1.371-1.094-1.872-1.84
		c-0.502-0.747-0.752-1.749-0.752-3.009c0-0.896,0.16-1.712,0.48-2.447c0.32-0.736,0.783-1.371,1.392-1.904s1.339-0.949,2.192-1.248
		c0.853-0.299,1.812-0.448,2.88-0.448c1.024,0,1.909,0.123,2.655,0.368c0.747,0.245,1.44,0.624,2.08,1.136
		c-0.191,0.363-0.352,0.747-0.479,1.152s-0.256,0.917-0.384,1.536h-0.385c-0.106-0.299-0.25-0.624-0.432-0.977
		c-0.182-0.352-0.427-0.677-0.736-0.976c-0.309-0.299-0.678-0.549-1.104-0.752c-0.428-0.202-0.939-0.304-1.536-0.304
		s-1.147,0.096-1.647,0.288c-0.502,0.191-0.939,0.464-1.312,0.815c-0.373,0.353-0.662,0.773-0.863,1.264
		c-0.203,0.491-0.305,1.024-0.305,1.601c0,1.003,0.25,1.792,0.752,2.368c0.501,0.575,1.125,1.062,1.872,1.456
		s1.552,0.747,2.416,1.056c0.864,0.31,1.669,0.688,2.416,1.136s1.37,1.024,1.872,1.729c0.501,0.704,0.752,1.643,0.752,2.815
		c0,0.981-0.176,1.91-0.527,2.784c-0.353,0.875-0.865,1.638-1.537,2.288c-0.672,0.651-1.493,1.152-2.463,1.504
		c-0.972,0.353-2.076,0.528-3.312,0.528c-1.323,0-2.395-0.176-3.217-0.528c-0.82-0.352-1.509-0.752-2.063-1.2
		c0.192-0.49,0.325-0.933,0.399-1.328c0.075-0.395,0.145-0.9,0.209-1.52h0.384C218.19,44.287,218.419,44.677,218.708,45.071z"/>
	<path class="st1" d="M234.644,30.175c-0.054-1.364-0.112-2.73-0.176-4.096c0.959,0.043,1.914,0.08,2.863,0.112
		s1.904,0.048,2.864,0.048s1.909-0.016,2.849-0.048c0.938-0.032,1.888-0.069,2.848-0.112c-0.064,0.32-0.096,0.641-0.096,0.96
		c0,0.32,0.031,0.641,0.096,0.96c-0.684-0.042-1.307-0.085-1.872-0.128c-0.565-0.042-1.163-0.085-1.792-0.128
		c-0.629-0.042-1.318-0.08-2.064-0.112c-0.746-0.031-1.643-0.048-2.688-0.048c-0.021,0.684-0.049,1.334-0.08,1.952
		c-0.032,0.619-0.049,1.323-0.049,2.112c0,0.832,0.006,1.643,0.017,2.432c0.011,0.79,0.017,1.387,0.017,1.792
		c0.938,0,1.781-0.011,2.527-0.032c0.746-0.021,1.43-0.048,2.049-0.08c0.617-0.031,1.188-0.063,1.711-0.096
		c0.523-0.032,1.02-0.068,1.488-0.112c-0.064,0.32-0.096,0.651-0.096,0.992c0,0.32,0.031,0.641,0.096,0.96
		c-0.555-0.063-1.199-0.116-1.936-0.159s-1.473-0.069-2.209-0.08c-0.735-0.011-1.429-0.021-2.079-0.032
		c-0.651-0.011-1.169-0.017-1.552-0.017c0,0.192-0.006,0.4-0.017,0.624c-0.011,0.225-0.017,0.508-0.017,0.849v1.248v1.92
		c0,1.216,0.006,2.219,0.017,3.008s0.026,1.387,0.048,1.792c0.704,0,1.451,0,2.24,0c0.811,0,1.605-0.016,2.385-0.048
		c0.777-0.032,1.514-0.074,2.207-0.128s1.297-0.133,1.809-0.24c-0.043,0.149-0.07,0.315-0.08,0.496
		c-0.012,0.182-0.016,0.347-0.016,0.496c0,0.342,0.031,0.619,0.096,0.832c-0.961-0.043-1.916-0.064-2.864-0.064
		c-0.95,0-1.915,0-2.896,0c-0.982,0-1.953,0-2.912,0c-0.961,0-1.932,0.021-2.912,0.064c0.063-1.365,0.122-2.726,0.176-4.08
		c0.053-1.354,0.08-2.736,0.08-4.145v-5.504C234.724,32.928,234.696,31.541,234.644,30.175z"/>
	<path class="st1" d="M267.363,29.472c-0.021-1.643-0.075-2.773-0.159-3.393c0.234,0.043,0.458,0.08,0.672,0.112
		c0.213,0.032,0.426,0.048,0.64,0.048c0.276,0,0.597-0.053,0.96-0.16c-0.064,0.747-0.129,1.638-0.192,2.672
		c-0.063,1.035-0.117,2.145-0.159,3.328c-0.043,1.185-0.086,2.4-0.129,3.648s-0.074,2.459-0.096,3.632
		c-0.021,1.43-0.24,2.709-0.656,3.84s-1.008,2.091-1.775,2.88c-0.769,0.79-1.713,1.387-2.832,1.792
		c-1.12,0.405-2.406,0.608-3.856,0.608c-3.2,0-5.525-0.726-6.976-2.176c-1.451-1.451-2.176-3.744-2.176-6.881
		c0-1.002,0.025-1.893,0.08-2.672c0.053-0.778,0.08-1.572,0.08-2.384c0-1.792-0.021-3.381-0.064-4.768s-0.086-2.561-0.129-3.521
		c0.257,0.043,0.533,0.08,0.832,0.112s0.576,0.048,0.832,0.048c0.235,0,0.465-0.016,0.688-0.048s0.453-0.069,0.688-0.112
		c-0.043,0.47-0.086,1.083-0.129,1.84c-0.043,0.758-0.085,1.616-0.127,2.576c-0.043,0.96-0.076,1.995-0.097,3.104
		c-0.021,1.109-0.032,2.261-0.032,3.456c0,0.726,0.011,1.478,0.032,2.256c0.021,0.778,0.097,1.536,0.224,2.271
		c0.129,0.736,0.336,1.44,0.625,2.112c0.287,0.672,0.698,1.259,1.231,1.76c0.533,0.502,1.205,0.896,2.017,1.185
		c0.811,0.288,1.812,0.432,3.008,0.432c1.173,0,2.16-0.171,2.959-0.512c0.801-0.341,1.457-0.789,1.969-1.345
		c0.512-0.554,0.912-1.194,1.2-1.92c0.288-0.725,0.495-1.482,0.624-2.271c0.128-0.789,0.202-1.579,0.224-2.368
		c0.021-0.789,0.032-1.515,0.032-2.176C267.396,33.45,267.384,31.114,267.363,29.472z"/>
	<path class="st1" d="M282.132,34.495c1.504,2.859,3.076,5.792,4.72,8.8c0.213-0.404,0.522-0.986,0.928-1.744
		c0.405-0.757,0.874-1.626,1.408-2.607c0.532-0.981,1.104-2.043,1.712-3.185c0.607-1.141,1.227-2.298,1.855-3.472
		c0.629-1.173,1.254-2.325,1.873-3.456c0.618-1.13,1.193-2.187,1.728-3.168h0.416c0.234,2.048,0.453,4.027,0.655,5.937
		c0.203,1.909,0.411,3.787,0.625,5.632c0.213,1.846,0.426,3.669,0.64,5.472c0.213,1.803,0.448,3.59,0.704,5.36
		c-0.256-0.043-0.508-0.064-0.752-0.064c-0.246,0-0.496,0-0.752,0s-0.508,0-0.752,0c-0.246,0-0.496,0.021-0.752,0.064
		c-0.235-2.837-0.47-5.589-0.704-8.256c-0.235-2.667-0.523-5.387-0.864-8.16h-0.064c-1.472,2.688-2.917,5.359-4.336,8.016
		c-1.418,2.656-2.768,5.436-4.047,8.336h-0.289c-1.279-2.688-2.619-5.381-4.016-8.08c-1.397-2.698-2.8-5.456-4.208-8.271h-0.063
		c-0.15,1.323-0.315,2.757-0.496,4.304c-0.182,1.547-0.348,3.072-0.496,4.576c-0.15,1.504-0.277,2.923-0.385,4.256
		c-0.106,1.334-0.16,2.427-0.16,3.28c-0.341-0.043-0.715-0.064-1.119-0.064c-0.406,0-0.779,0.021-1.12,0.064
		c0.276-1.729,0.565-3.552,0.864-5.473c0.299-1.92,0.586-3.85,0.863-5.792c0.277-1.94,0.533-3.855,0.769-5.743
		c0.234-1.889,0.437-3.686,0.608-5.393h0.543C279.14,28.692,280.628,31.637,282.132,34.495z"/>
	<path class="st1" d="M312.052,32.272c0.586-1.419,1.407-2.619,2.463-3.601c1.057-0.98,2.32-1.728,3.793-2.239
		c1.472-0.513,3.082-0.769,4.832-0.769c1.77,0,3.392,0.256,4.863,0.769c1.473,0.512,2.736,1.259,3.792,2.239
		c1.056,0.981,1.878,2.182,2.464,3.601c0.587,1.419,0.881,3.035,0.881,4.848c0,1.813-0.294,3.43-0.881,4.848
		c-0.586,1.42-1.408,2.619-2.464,3.601s-2.319,1.712-3.792,2.191c-1.472,0.48-3.094,0.721-4.863,0.721
		c-1.75,0-3.36-0.24-4.832-0.721c-1.473-0.479-2.736-1.21-3.793-2.191c-1.056-0.981-1.877-2.181-2.463-3.601
		c-0.588-1.418-0.881-3.034-0.881-4.848C311.171,35.307,311.464,33.691,312.052,32.272z M331.331,32.527
		c-0.447-1.291-1.072-2.357-1.872-3.2s-1.739-1.467-2.815-1.872c-1.078-0.405-2.246-0.607-3.504-0.607
		c-1.238,0-2.396,0.202-3.473,0.607s-2.016,1.029-2.816,1.872c-0.799,0.843-1.424,1.909-1.871,3.2
		c-0.448,1.291-0.672,2.821-0.672,4.592c0,1.771,0.224,3.302,0.672,4.592c0.447,1.291,1.072,2.357,1.871,3.2
		c0.801,0.843,1.739,1.467,2.816,1.872s2.234,0.608,3.473,0.608c1.258,0,2.426-0.203,3.504-0.608
		c1.076-0.405,2.016-1.029,2.815-1.872s1.425-1.909,1.872-3.2c0.448-1.29,0.672-2.82,0.672-4.592
		C332.003,35.349,331.779,33.818,331.331,32.527z"/>
	<path class="st1" d="M339.539,30.224c-0.054-1.354-0.112-2.736-0.177-4.145c0.961,0.043,1.915,0.08,2.865,0.112
		c0.948,0.032,1.903,0.048,2.863,0.048s1.931-0.016,2.912-0.048c0.98-0.032,2.048-0.069,3.2-0.112
		c-0.064,0.32-0.097,0.641-0.097,0.96c0,0.32,0.032,0.641,0.097,0.96c-0.576-0.063-1.27-0.122-2.08-0.176
		c-0.812-0.053-1.638-0.096-2.479-0.128c-0.844-0.032-1.654-0.059-2.433-0.08c-0.778-0.021-1.424-0.032-1.937-0.032
		c-0.021,0.747-0.037,1.462-0.047,2.145c-0.012,0.683-0.017,1.365-0.017,2.048c0,0.747,0.005,1.435,0.017,2.063
		c0.01,0.63,0.016,1.286,0.016,1.969c1.408,0,2.8-0.021,4.176-0.064c1.376-0.042,2.736-0.128,4.08-0.256
		c-0.086,0.32-0.128,0.64-0.128,0.96s0.042,0.64,0.128,0.96c-0.533-0.063-1.137-0.112-1.809-0.144
		c-0.672-0.032-1.371-0.059-2.096-0.08s-1.461-0.032-2.208-0.032s-1.462,0-2.144,0v2.72c0,1.408,0.026,2.795,0.08,4.16
		c0.053,1.365,0.111,2.71,0.176,4.032c-0.491-0.043-1.014-0.064-1.568-0.064s-1.077,0.021-1.568,0.064
		c0.064-1.322,0.123-2.667,0.177-4.032c0.053-1.365,0.08-2.752,0.08-4.16v-5.504C339.619,32.959,339.592,31.578,339.539,30.224z"/>
	<path class="st1" d="M380.995,48.064c-0.299-0.043-0.582-0.064-0.848-0.064c-0.268,0-0.55,0-0.848,0c-0.299,0-0.582,0-0.849,0
		s-0.55,0.021-0.848,0.064c-0.149-0.49-0.353-1.083-0.608-1.776c-0.256-0.692-0.539-1.418-0.848-2.176
		c-0.31-0.757-0.624-1.525-0.944-2.304c-0.319-0.779-0.618-1.521-0.896-2.225c-0.684-0.021-1.377-0.037-2.08-0.048
		c-0.704-0.011-1.408-0.016-2.112-0.016c-0.661,0-1.312,0.005-1.952,0.016c-0.64,0.011-1.291,0.027-1.951,0.048
		c-0.684,1.664-1.303,3.248-1.856,4.752c-0.556,1.504-0.972,2.747-1.248,3.729c-0.363-0.043-0.758-0.064-1.185-0.064
		s-0.82,0.021-1.184,0.064c1.729-3.733,3.413-7.445,5.057-11.136c1.643-3.691,3.295-7.445,4.959-11.265h0.608
		c0.513,1.237,1.066,2.576,1.664,4.017c0.597,1.439,1.205,2.896,1.823,4.367c0.619,1.473,1.238,2.934,1.857,4.385
		c0.617,1.45,1.199,2.8,1.743,4.048s1.034,2.362,1.472,3.344S380.718,47.551,380.995,48.064z M366.819,38.111
		c0.555,0,1.131,0.011,1.729,0.032c0.597,0.021,1.172,0.031,1.728,0.031c0.597,0,1.194-0.005,1.792-0.016s1.194-0.026,1.792-0.048
		l-3.552-8.128L366.819,38.111z"/>
	<path class="st1" d="M384.595,30.224c-0.053-1.354-0.111-2.736-0.176-4.145c0.619,0.043,1.227,0.08,1.824,0.112
		c0.597,0.032,1.205,0.048,1.824,0.048c0.618,0,1.227-0.026,1.824-0.08c0.597-0.053,1.205-0.08,1.823-0.08
		c0.896,0,1.749,0.086,2.56,0.256c0.811,0.171,1.521,0.454,2.128,0.849c0.608,0.395,1.089,0.912,1.44,1.552
		c0.353,0.64,0.528,1.439,0.528,2.4c0,1.023-0.229,1.903-0.688,2.64s-1.019,1.344-1.68,1.824c-0.661,0.479-1.371,0.854-2.128,1.12
		s-1.445,0.442-2.063,0.527c0.256,0.32,0.607,0.769,1.056,1.344c0.448,0.576,0.948,1.212,1.504,1.904
		c0.555,0.693,1.13,1.419,1.728,2.176c0.598,0.758,1.174,1.483,1.729,2.177s1.077,1.327,1.568,1.903
		c0.49,0.576,0.885,1.014,1.184,1.312c-0.32-0.043-0.64-0.064-0.96-0.064s-0.64,0-0.96,0c-0.299,0-0.608,0-0.928,0
		c-0.32,0-0.63,0.021-0.929,0.064c-0.32-0.448-0.806-1.12-1.456-2.017c-0.65-0.896-1.371-1.855-2.16-2.88
		c-0.789-1.023-1.594-2.042-2.416-3.056c-0.82-1.013-1.572-1.872-2.256-2.576h-1.216v2.336c0,1.408,0.026,2.795,0.08,4.16
		s0.112,2.71,0.177,4.032c-0.492-0.043-1.014-0.064-1.568-0.064s-1.078,0.021-1.568,0.064c0.064-1.322,0.123-2.667,0.176-4.032
		s0.08-2.752,0.08-4.16v-5.504C384.675,32.959,384.647,31.578,384.595,30.224z M388.274,36.319c0.353,0.021,0.742,0.032,1.168,0.032
		c0.662,0,1.35-0.075,2.064-0.225c0.715-0.148,1.371-0.41,1.969-0.783c0.597-0.373,1.092-0.875,1.487-1.505
		c0.395-0.629,0.593-1.424,0.593-2.384c0-0.832-0.156-1.52-0.465-2.063s-0.709-0.977-1.199-1.296
		c-0.492-0.32-1.024-0.539-1.601-0.656s-1.142-0.176-1.696-0.176c-0.746,0-1.365,0.016-1.855,0.048
		c-0.491,0.032-0.907,0.069-1.248,0.111c-0.043,1.174-0.086,2.336-0.128,3.488c-0.044,1.152-0.064,2.304-0.064,3.456v1.824
		C387.598,36.255,387.923,36.298,388.274,36.319z"/>
	<path class="st1" d="M408.004,27.743c-0.556,0-1.137,0.006-1.744,0.016c-0.608,0.012-1.216,0.032-1.824,0.064
		s-1.195,0.069-1.76,0.112c-0.565,0.043-1.072,0.096-1.521,0.16c0.106-0.385,0.16-0.726,0.16-1.024c0-0.234-0.054-0.565-0.16-0.992
		c1.408,0.043,2.784,0.08,4.128,0.112c1.345,0.032,2.721,0.048,4.129,0.048c1.407,0,2.783-0.016,4.128-0.048
		c1.344-0.032,2.72-0.069,4.128-0.112c-0.107,0.427-0.16,0.769-0.16,1.024c0,0.277,0.053,0.607,0.16,0.992
		c-0.448-0.064-0.955-0.117-1.521-0.16s-1.151-0.08-1.76-0.112s-1.216-0.053-1.824-0.064c-0.607-0.01-1.189-0.016-1.744-0.016
		c-0.063,2.197-0.096,4.405-0.096,6.624v5.504c0,1.408,0.026,2.795,0.08,4.16c0.053,1.365,0.112,2.71,0.176,4.032
		c-0.491-0.043-1.014-0.064-1.567-0.064c-0.556,0-1.078,0.021-1.568,0.064c0.063-1.322,0.122-2.667,0.176-4.032
		c0.053-1.365,0.08-2.752,0.08-4.16v-5.504C408.1,32.149,408.067,29.941,408.004,27.743z"/>
</g>
</svg>